<svg version="1.1" xmlns="http://www.w3.org/2000/svg" width="32" height="26" viewBox="0 0 172 172">
	<defs>
		<filter id="glow" x="-50%" y="-50%" width="300%" height="300%">
			<feGaussianBlur result="blurred" in="SourceGraphic" stdDeviation="10" />
		</filter>

		<filter id="shadow" x="-50%" y="-50%" width="300%" height="300%">
			<feOffset result="offOut" in="SourceAlpha" dx="0" dy="0" />
			<feColorMatrix
			result="matrixOut"
			in="offOut"
			type="matrix"
			values="1 0 0 0 0
					0 1 0 0 0
					0 0 1 0.05 0
					0 0 0 0.2 0"
					/>
			<feGaussianBlur result="blurOut" in="matrixOut" stdDeviation="50" />
		</filter>
	</defs>
	
	<g>
		<g>
			<path fill="rgb(118, 226, 255)" d="M150.5,32.25c0,5.9419 -4.8081,10.75 -10.75,10.75c-0.16797,0 -0.33594,0 -0.50391,0l-11.25391,16.79688c0.67188,1.40674 1.00781,3.04443 1.00781,4.70313c0,5.9419 -4.8081,10.75 -10.75,10.75c-4.32519,0 -8.04151,-2.54053 -9.74219,-6.21484l-38.46484,-3.19141l25.16634,21.35326c-2.79273,2.26024 -5.35442,4.79468 -7.64413,7.56237l-30.11987,-25.55625c-1.15479,0.41992 -2.39355,0.67188 -3.69531,0.67188c-5.9419,0 -10.75,-4.8081 -10.75,-10.75c0,-5.9419 4.8081,-10.75 10.75,-10.75c4.26221,0 7.99951,2.43555 9.74219,6.04688l46.02344,3.86328c1.95264,-2.75049 5.10205,-4.53516 8.73438,-4.53516c0.16797,0 0.33594,0 0.50391,0l11.25391,-16.79687c-0.67187,-1.40674 -1.00781,-3.04443 -1.00781,-4.70312c0,-5.9419 4.8081,-10.75 10.75,-10.75c5.9419,0 10.75,4.8081 10.75,10.75zM68.02734,118.92188c-1.93164,2.85547 -5.18604,4.70313 -8.90234,4.70313c-0.92383,0 -1.82666,-0.10498 -2.6875,-0.33594l-13.77344,13.77344c0.23096,0.86084 0.33594,1.76367 0.33594,2.6875c0,5.9419 -4.8081,10.75 -10.75,10.75c-5.9419,0 -10.75,-4.8081 -10.75,-10.75c0,-5.9419 4.8081,-10.75 10.75,-10.75c0.92383,0 1.82666,0.10498 2.6875,0.33594l13.77344,-13.77344c-0.23096,-0.86084 -0.33594,-1.76367 -0.33594,-2.6875c0,-5.9419 4.8081,-10.75 10.75,-10.75c4.3252,0 8.04151,2.54053 9.74219,6.21484l10.15394,0.84247c-1.3185,3.32249 -2.31528,6.80766 -2.95192,10.41708z"></path>
			<path fill="rgb(182,239,255)" filter="url(#glow)" d="M150.5,32.25c0,5.9419 -4.8081,10.75 -10.75,10.75c-0.16797,0 -0.33594,0 -0.50391,0l-11.25391,16.79688c0.67188,1.40674 1.00781,3.04443 1.00781,4.70313c0,5.9419 -4.8081,10.75 -10.75,10.75c-4.32519,0 -8.04151,-2.54053 -9.74219,-6.21484l-38.46484,-3.19141l25.16634,21.35326c-2.79273,2.26024 -5.35442,4.79468 -7.64413,7.56237l-30.11987,-25.55625c-1.15479,0.41992 -2.39355,0.67188 -3.69531,0.67188c-5.9419,0 -10.75,-4.8081 -10.75,-10.75c0,-5.9419 4.8081,-10.75 10.75,-10.75c4.26221,0 7.99951,2.43555 9.74219,6.04688l46.02344,3.86328c1.95264,-2.75049 5.10205,-4.53516 8.73438,-4.53516c0.16797,0 0.33594,0 0.50391,0l11.25391,-16.79687c-0.67187,-1.40674 -1.00781,-3.04443 -1.00781,-4.70312c0,-5.9419 4.8081,-10.75 10.75,-10.75c5.9419,0 10.75,4.8081 10.75,10.75zM68.02734,118.92188c-1.93164,2.85547 -5.18604,4.70313 -8.90234,4.70313c-0.92383,0 -1.82666,-0.10498 -2.6875,-0.33594l-13.77344,13.77344c0.23096,0.86084 0.33594,1.76367 0.33594,2.6875c0,5.9419 -4.8081,10.75 -10.75,10.75c-5.9419,0 -10.75,-4.8081 -10.75,-10.75c0,-5.9419 4.8081,-10.75 10.75,-10.75c0.92383,0 1.82666,0.10498 2.6875,0.33594l13.77344,-13.77344c-0.23096,-0.86084 -0.33594,-1.76367 -0.33594,-2.6875c0,-5.9419 4.8081,-10.75 10.75,-10.75c4.3252,0 8.04151,2.54053 9.74219,6.21484l10.15394,0.84247c-1.3185,3.32249 -2.31528,6.80766 -2.95192,10.41708z"></path>
			<path fill="rgb(182,239,255)" filter="url(#shadow)" d="M150.5,32.25c0,5.9419 -4.8081,10.75 -10.75,10.75c-0.16797,0 -0.33594,0 -0.50391,0l-11.25391,16.79688c0.67188,1.40674 1.00781,3.04443 1.00781,4.70313c0,5.9419 -4.8081,10.75 -10.75,10.75c-4.32519,0 -8.04151,-2.54053 -9.74219,-6.21484l-38.46484,-3.19141l25.16634,21.35326c-2.79273,2.26024 -5.35442,4.79468 -7.64413,7.56237l-30.11987,-25.55625c-1.15479,0.41992 -2.39355,0.67188 -3.69531,0.67188c-5.9419,0 -10.75,-4.8081 -10.75,-10.75c0,-5.9419 4.8081,-10.75 10.75,-10.75c4.26221,0 7.99951,2.43555 9.74219,6.04688l46.02344,3.86328c1.95264,-2.75049 5.10205,-4.53516 8.73438,-4.53516c0.16797,0 0.33594,0 0.50391,0l11.25391,-16.79687c-0.67187,-1.40674 -1.00781,-3.04443 -1.00781,-4.70312c0,-5.9419 4.8081,-10.75 10.75,-10.75c5.9419,0 10.75,4.8081 10.75,10.75zM68.02734,118.92188c-1.93164,2.85547 -5.18604,4.70313 -8.90234,4.70313c-0.92383,0 -1.82666,-0.10498 -2.6875,-0.33594l-13.77344,13.77344c0.23096,0.86084 0.33594,1.76367 0.33594,2.6875c0,5.9419 -4.8081,10.75 -10.75,10.75c-5.9419,0 -10.75,-4.8081 -10.75,-10.75c0,-5.9419 4.8081,-10.75 10.75,-10.75c0.92383,0 1.82666,0.10498 2.6875,0.33594l13.77344,-13.77344c-0.23096,-0.86084 -0.33594,-1.76367 -0.33594,-2.6875c0,-5.9419 4.8081,-10.75 10.75,-10.75c4.3252,0 8.04151,2.54053 9.74219,6.21484l10.15394,0.84247c-1.3185,3.32249 -2.31528,6.80766 -2.95192,10.41708z"></path>
		</g>
		<g>
			<path fill="rgb(255, 168, 95)" d="M129,172c-23.65,0 -43,-19.35 -43,-43c0,-23.65 19.35,-43 43,-43c23.65,0 43,19.35 43,43c0,23.65 -19.35,43 -43,43zM129,96.75c-17.7375,0 -32.25,14.5125 -32.25,32.25c0,17.7375 14.5125,32.25 32.25,32.25c17.7375,0 32.25,-14.5125 32.25,-32.25c0,-17.7375 -14.5125,-32.25 -32.25,-32.25zM148.8875,116.6375l-7.525,-7.525l-12.3625,12.3625l-12.3625,-12.3625l-7.525,7.525l12.3625,12.3625l-12.3625,12.3625l7.525,7.525l12.3625,-12.3625l12.3625,12.3625l7.525,-7.525l-12.3625,-12.3625z"></path>
			<path fill="rgb(255, 141, 67)" filter="url(#glow)" d="M129,172c-23.65,0 -43,-19.35 -43,-43c0,-23.65 19.35,-43 43,-43c23.65,0 43,19.35 43,43c0,23.65 -19.35,43 -43,43zM129,96.75c-17.7375,0 -32.25,14.5125 -32.25,32.25c0,17.7375 14.5125,32.25 32.25,32.25c17.7375,0 32.25,-14.5125 32.25,-32.25c0,-17.7375 -14.5125,-32.25 -32.25,-32.25zM148.8875,116.6375l-7.525,-7.525l-12.3625,12.3625l-12.3625,-12.3625l-7.525,7.525l12.3625,12.3625l-12.3625,12.3625l7.525,7.525l12.3625,-12.3625l12.3625,12.3625l7.525,-7.525l-12.3625,-12.3625z"></path>
			<path fill="rgb(255, 141, 67)" filter="url(#shadow)" d="M129,172c-23.65,0 -43,-19.35 -43,-43c0,-23.65 19.35,-43 43,-43c23.65,0 43,19.35 43,43c0,23.65 -19.35,43 -43,43zM129,96.75c-17.7375,0 -32.25,14.5125 -32.25,32.25c0,17.7375 14.5125,32.25 32.25,32.25c17.7375,0 32.25,-14.5125 32.25,-32.25c0,-17.7375 -14.5125,-32.25 -32.25,-32.25zM148.8875,116.6375l-7.525,-7.525l-12.3625,12.3625l-12.3625,-12.3625l-7.525,7.525l12.3625,12.3625l-12.3625,12.3625l7.525,7.525l12.3625,-12.3625l12.3625,12.3625l7.525,-7.525l-12.3625,-12.3625z"></path>
		</g>
	</g>
</svg>