<svg version="1.1" xmlns="http://www.w3.org/2000/svg"  width="32" height="26" viewBox="0 0 172 172">
	<defs>
		<filter id="glow" x="-50%" y="-50%" width="300%" height="300%">
			<feGaussianBlur result="blurred" in="SourceGraphic" stdDeviation="10" />
		</filter>

		<filter id="shadow" x="-50%" y="-50%" width="300%" height="300%">
			<feOffset result="offOut" in="SourceAlpha" dx="0" dy="0" />
			<feColorMatrix
			result="matrixOut"
			in="offOut"
			type="matrix"
			values="1 0 0 0 0
					0 1 0 0 0
					0 0 1 0.05 0
					0 0 0 0.2 0"
					/>
			<feGaussianBlur result="blurOut" in="matrixOut" stdDeviation="50" />
		</filter>
	</defs>
	
	<g>
		<path fill="rgb(255, 168, 95)" d="M80.625,21.5c-32.58594,0 -59.125,26.53906 -59.125,59.125c0,32.58594 26.53906,59.125 59.125,59.125c32.58594,0 59.125,-26.53906 59.125,-59.125c0,-32.58594 -26.53906,-59.125 -59.125,-59.125zM80.625,32.25c26.79102,0 48.375,21.58399 48.375,48.375c0,26.79102 -21.58398,48.375 -48.375,48.375c-26.79101,0 -48.375,-21.58398 -48.375,-48.375c0,-26.79101 21.58399,-48.375 48.375,-48.375z"></path>
		<path fill="rgb(255, 141, 67)" filter="url(#glow)" d="M80.625,21.5c-32.58594,0 -59.125,26.53906 -59.125,59.125c0,32.58594 26.53906,59.125 59.125,59.125c32.58594,0 59.125,-26.53906 59.125,-59.125c0,-32.58594 -26.53906,-59.125 -59.125,-59.125zM80.625,32.25c26.79102,0 48.375,21.58399 48.375,48.375c0,26.79102 -21.58398,48.375 -48.375,48.375c-26.79101,0 -48.375,-21.58398 -48.375,-48.375c0,-26.79101 21.58399,-48.375 48.375,-48.375z"></path>
		<path fill="rgb(255, 141, 67)" filter="url(#shadow)" d="M80.625,21.5c-32.58594,0 -59.125,26.53906 -59.125,59.125c0,32.58594 26.53906,59.125 59.125,59.125c32.58594,0 59.125,-26.53906 59.125,-59.125c0,-32.58594 -26.53906,-59.125 -59.125,-59.125zM80.625,32.25c26.79102,0 48.375,21.58399 48.375,48.375c0,26.79102 -21.58398,48.375 -48.375,48.375c-26.79101,0 -48.375,-21.58398 -48.375,-48.375c0,-26.79101 21.58399,-48.375 48.375,-48.375z"></path>
	</g>
</svg>