<svg version="1.1" xmlns="http://www.w3.org/2000/svg" width="52" height="52" viewBox="0 0 172 172">
	<defs>
		<filter id="glow" x="-50%" y="-50%" width="300%" height="300%">
			<feGaussianBlur result="blurred" in="SourceGraphic" stdDeviation="10" />
		</filter>

		<filter id="shadow" x="-50%" y="-50%" width="300%" height="300%">
			<feOffset result="offOut" in="SourceAlpha" dx="0" dy="0" />
			<feColorMatrix
			result="matrixOut"
			in="offOut"
			type="matrix"
			values="1 0 0 0 0
					0 1 0 0 0
					0 0 1 0.05 0
					0 0 0 0.2 0"
					/>
			<feGaussianBlur result="blurOut" in="matrixOut" stdDeviation="50" />
		</filter>
	</defs>
	<g>
		<path fill="rgb(118, 226, 255)" d="M130.72,142.76h-89.44c-6.6392,0 -12.04,-5.4008 -12.04,-12.04v-89.44c0,-6.6392 5.4008,-12.04 12.04,-12.04h89.44c6.6392,0 12.04,5.4008 12.04,12.04v89.44c0,6.6392 -5.4008,12.04 -12.04,12.04zM41.28,32.68c-4.74204,0 -8.6,3.85796 -8.6,8.6v89.44c0,4.74204 3.85796,8.6 8.6,8.6h89.44c4.74204,0 8.6,-3.85796 8.6,-8.6v-89.44c0,-4.74204 -3.85796,-8.6 -8.6,-8.6z"></path>
		<path fill="rgb(118, 226, 255)" d="M100.62,125.56h-58.48c-6.16448,0 -11.18,-5.01552 -11.18,-11.18c0,-0.47472 0.38528,-0.86 0.86,-0.86c0.47472,0 0.86,0.38528 0.86,0.86c0,5.21676 4.24324,9.46 9.46,9.46h58.48c0.47472,0 0.86,0.38528 0.86,0.86c0,0.47472 -0.38528,0.86 -0.86,0.86z"></path>
		<path fill="rgb(118, 226, 255)" d="M129.86,125.56c-0.47472,0 -0.86,-0.38528 -0.86,-0.86c0,-0.47472 0.38528,-0.86 0.86,-0.86c5.21676,0 9.46,-4.24324 9.46,-9.46c0,-0.47472 0.38528,-0.86 0.86,-0.86c0.47472,0 0.86,0.38528 0.86,0.86c0,6.16448 -5.01552,11.18 -11.18,11.18z"></path>
	</g>
	<g>
		<path fill="rgb(182,239,255)" filter="url(#glow)" d="M130.72,142.76h-89.44c-6.6392,0 -12.04,-5.4008 -12.04,-12.04v-89.44c0,-6.6392 5.4008,-12.04 12.04,-12.04h89.44c6.6392,0 12.04,5.4008 12.04,12.04v89.44c0,6.6392 -5.4008,12.04 -12.04,12.04zM41.28,32.68c-4.74204,0 -8.6,3.85796 -8.6,8.6v89.44c0,4.74204 3.85796,8.6 8.6,8.6h89.44c4.74204,0 8.6,-3.85796 8.6,-8.6v-89.44c0,-4.74204 -3.85796,-8.6 -8.6,-8.6z"></path>
		<path fill="rgb(182,239,255)" filter="url(#glow)" d="M100.62,125.56h-58.48c-6.16448,0 -11.18,-5.01552 -11.18,-11.18c0,-0.47472 0.38528,-0.86 0.86,-0.86c0.47472,0 0.86,0.38528 0.86,0.86c0,5.21676 4.24324,9.46 9.46,9.46h58.48c0.47472,0 0.86,0.38528 0.86,0.86c0,0.47472 -0.38528,0.86 -0.86,0.86z"></path>
		<path fill="rgb(182,239,255)" filter="url(#glow)" d="M129.86,125.56c-0.47472,0 -0.86,-0.38528 -0.86,-0.86c0,-0.47472 0.38528,-0.86 0.86,-0.86c5.21676,0 9.46,-4.24324 9.46,-9.46c0,-0.47472 0.38528,-0.86 0.86,-0.86c0.47472,0 0.86,0.38528 0.86,0.86c0,6.16448 -5.01552,11.18 -11.18,11.18z"></path>
	</g>
	<g>
		<path fill="rgb(182,239,255)" filter="url(#shadow)" d="M130.72,142.76h-89.44c-6.6392,0 -12.04,-5.4008 -12.04,-12.04v-89.44c0,-6.6392 5.4008,-12.04 12.04,-12.04h89.44c6.6392,0 12.04,5.4008 12.04,12.04v89.44c0,6.6392 -5.4008,12.04 -12.04,12.04zM41.28,32.68c-4.74204,0 -8.6,3.85796 -8.6,8.6v89.44c0,4.74204 3.85796,8.6 8.6,8.6h89.44c4.74204,0 8.6,-3.85796 8.6,-8.6v-89.44c0,-4.74204 -3.85796,-8.6 -8.6,-8.6z"></path>
		<path fill="rgb(182,239,255)" filter="url(#shadow)" d="M100.62,125.56h-58.48c-6.16448,0 -11.18,-5.01552 -11.18,-11.18c0,-0.47472 0.38528,-0.86 0.86,-0.86c0.47472,0 0.86,0.38528 0.86,0.86c0,5.21676 4.24324,9.46 9.46,9.46h58.48c0.47472,0 0.86,0.38528 0.86,0.86c0,0.47472 -0.38528,0.86 -0.86,0.86z"></path>
		<path fill="rgb(182,239,255)" filter="url(#shadow)" d="M129.86,125.56c-0.47472,0 -0.86,-0.38528 -0.86,-0.86c0,-0.47472 0.38528,-0.86 0.86,-0.86c5.21676,0 9.46,-4.24324 9.46,-9.46c0,-0.47472 0.38528,-0.86 0.86,-0.86c0.47472,0 0.86,0.38528 0.86,0.86c0,6.16448 -5.01552,11.18 -11.18,11.18z"></path>
	</g>
	<g>
		<text text-anchor="middle" alignment-baseline="middle" x="50%" y="50%" font-size="80" font-family="Arial" fill="rgb(118, 226, 255)">9</text>
		<text text-anchor="middle" alignment-baseline="middle" x="50%" y="50%" font-size="80" font-family="Arial" fill="rgb(182,239,255)" filter="url(#glow)">9</text>
		<text text-anchor="middle" alignment-baseline="middle" x="50%" y="50%" font-size="80" font-family="Arial" fill="rgb(182,239,255)" filter="url(#shadow)">9</text>
	</g>
</svg>