<svg version="1.1" xmlns="http://www.w3.org/2000/svg" width="32" height="26" xmlns:xlink="http://www.w3.org/1999/xlink" viewBox="0 0 172 172">
	<defs>
		<filter id="glow" x="-50%" y="-50%" width="300%" height="300%">
			<feGaussianBlur result="blurred" in="SourceGraphic" stdDeviation="10" />
		</filter>

		<filter id="shadow" x="-50%" y="-50%" width="300%" height="300%">
			<feOffset result="offOut" in="SourceAlpha" dx="0" dy="0" />
			<feColorMatrix
			result="matrixOut"
			in="offOut"
			type="matrix"
			values="1 0 0 0 0
					0 1 0 0 0
					0 0 1 0.05 0
					0 0 0 0.2 0"
					/>
			<feGaussianBlur result="blurOut" in="matrixOut" stdDeviation="50" />
		</filter>
	</defs>
	
	<g>
		<path fill="rgb(118, 226, 255)" d="M78.83333,0v16.32096c-2.75166,1.59966 -4.93615,4.04087 -6.13086,7.02669c-19.72998,5.44995 -34.61832,22.66818 -36.58919,43.60189c-4.57381,5.08523 -7.44661,11.72649 -7.44661,19.05046c0,7.16798 2.7649,13.67022 7.16667,18.71452v52.95215h14.33333c0,-11.95747 9.54253,-21.5 21.5,-21.5h28.66667c11.95747,0 21.5,9.54253 21.5,21.5h14.33333v-52.95215c4.40176,-5.04429 7.16667,-11.54654 7.16667,-18.71452c0,-7.32397 -2.87281,-13.96522 -7.44661,-19.05046c-1.97087,-20.93371 -16.85922,-38.15194 -36.58919,-43.60189c-1.19471,-2.98582 -3.37921,-5.42703 -6.13086,-7.02669v-16.32096zM86,35.83333c14.91953,0 27.55182,9.04457 32.96386,21.93392c-1.41265,-0.21699 -2.82703,-0.43392 -4.2972,-0.43392h-57.33333c-1.47017,0 -2.88455,0.21693 -4.2972,0.43392c5.41205,-12.88935 18.04434,-21.93392 32.96387,-21.93392zM57.33333,71.66667h57.33333c8.00277,0 14.33333,6.33056 14.33333,14.33333c0,8.00277 -6.33056,14.33333 -14.33333,14.33333h-57.33333c-8.00277,0 -14.33333,-6.33056 -14.33333,-14.33333c0,-8.00277 6.33056,-14.33333 14.33333,-14.33333zM57.33333,78.83333v14.33333h14.33333v-14.33333zM100.33333,78.83333v14.33333h14.33333v-14.33333zM50.16667,113.63086c2.30601,0.60462 4.67984,1.03581 7.16667,1.03581h57.33333c2.48683,0 4.86066,-0.43119 7.16667,-1.03581v15.5791c-6.01324,-4.56193 -13.41646,-7.37663 -21.5,-7.37663h-28.66667c-8.08354,0 -15.48676,2.81469 -21.5,7.37663z" />
		<path fill="rgb(182,239,255)" filter="url(#glow)" d="M78.83333,0v16.32096c-2.75166,1.59966 -4.93615,4.04087 -6.13086,7.02669c-19.72998,5.44995 -34.61832,22.66818 -36.58919,43.60189c-4.57381,5.08523 -7.44661,11.72649 -7.44661,19.05046c0,7.16798 2.7649,13.67022 7.16667,18.71452v52.95215h14.33333c0,-11.95747 9.54253,-21.5 21.5,-21.5h28.66667c11.95747,0 21.5,9.54253 21.5,21.5h14.33333v-52.95215c4.40176,-5.04429 7.16667,-11.54654 7.16667,-18.71452c0,-7.32397 -2.87281,-13.96522 -7.44661,-19.05046c-1.97087,-20.93371 -16.85922,-38.15194 -36.58919,-43.60189c-1.19471,-2.98582 -3.37921,-5.42703 -6.13086,-7.02669v-16.32096zM86,35.83333c14.91953,0 27.55182,9.04457 32.96386,21.93392c-1.41265,-0.21699 -2.82703,-0.43392 -4.2972,-0.43392h-57.33333c-1.47017,0 -2.88455,0.21693 -4.2972,0.43392c5.41205,-12.88935 18.04434,-21.93392 32.96387,-21.93392zM57.33333,71.66667h57.33333c8.00277,0 14.33333,6.33056 14.33333,14.33333c0,8.00277 -6.33056,14.33333 -14.33333,14.33333h-57.33333c-8.00277,0 -14.33333,-6.33056 -14.33333,-14.33333c0,-8.00277 6.33056,-14.33333 14.33333,-14.33333zM57.33333,78.83333v14.33333h14.33333v-14.33333zM100.33333,78.83333v14.33333h14.33333v-14.33333zM50.16667,113.63086c2.30601,0.60462 4.67984,1.03581 7.16667,1.03581h57.33333c2.48683,0 4.86066,-0.43119 7.16667,-1.03581v15.5791c-6.01324,-4.56193 -13.41646,-7.37663 -21.5,-7.37663h-28.66667c-8.08354,0 -15.48676,2.81469 -21.5,7.37663z" />
		<path fill="rgb(182,239,255)" filter="url(#shadow)" d="M78.83333,0v16.32096c-2.75166,1.59966 -4.93615,4.04087 -6.13086,7.02669c-19.72998,5.44995 -34.61832,22.66818 -36.58919,43.60189c-4.57381,5.08523 -7.44661,11.72649 -7.44661,19.05046c0,7.16798 2.7649,13.67022 7.16667,18.71452v52.95215h14.33333c0,-11.95747 9.54253,-21.5 21.5,-21.5h28.66667c11.95747,0 21.5,9.54253 21.5,21.5h14.33333v-52.95215c4.40176,-5.04429 7.16667,-11.54654 7.16667,-18.71452c0,-7.32397 -2.87281,-13.96522 -7.44661,-19.05046c-1.97087,-20.93371 -16.85922,-38.15194 -36.58919,-43.60189c-1.19471,-2.98582 -3.37921,-5.42703 -6.13086,-7.02669v-16.32096zM86,35.83333c14.91953,0 27.55182,9.04457 32.96386,21.93392c-1.41265,-0.21699 -2.82703,-0.43392 -4.2972,-0.43392h-57.33333c-1.47017,0 -2.88455,0.21693 -4.2972,0.43392c5.41205,-12.88935 18.04434,-21.93392 32.96387,-21.93392zM57.33333,71.66667h57.33333c8.00277,0 14.33333,6.33056 14.33333,14.33333c0,8.00277 -6.33056,14.33333 -14.33333,14.33333h-57.33333c-8.00277,0 -14.33333,-6.33056 -14.33333,-14.33333c0,-8.00277 6.33056,-14.33333 14.33333,-14.33333zM57.33333,78.83333v14.33333h14.33333v-14.33333zM100.33333,78.83333v14.33333h14.33333v-14.33333zM50.16667,113.63086c2.30601,0.60462 4.67984,1.03581 7.16667,1.03581h57.33333c2.48683,0 4.86066,-0.43119 7.16667,-1.03581v15.5791c-6.01324,-4.56193 -13.41646,-7.37663 -21.5,-7.37663h-28.66667c-8.08354,0 -15.48676,2.81469 -21.5,7.37663z" />
	</g>
</svg>