<svg version="1.1" xmlns="http://www.w3.org/2000/svg" width="32" height="26" xmlns:xlink="http://www.w3.org/1999/xlink" viewBox="0 0 172 172">
	<defs>
		<filter id="glow" x="-50%" y="-50%" width="300%" height="300%">
			<feGaussianBlur result="blurred" in="SourceGraphic" stdDeviation="10" />
		</filter>

		<filter id="shadow" x="-50%" y="-50%" width="300%" height="300%">
			<feOffset result="offOut" in="SourceAlpha" dx="0" dy="0" />
			<feColorMatrix
			result="matrixOut"
			in="offOut"
			type="matrix"
			values="1 0 0 0 0
					0 1 0 0 0
					0 0 1 0.05 0
					0 0 0 0.2 0"
					/>
			<feGaussianBlur result="blurOut" in="matrixOut" stdDeviation="50" />
		</filter>
	</defs>
	
	<g>
		<path fill="rgb(118, 226, 255)" d="M21.5,14.33333c-7.91917,0 -14.33333,6.41417 -14.33333,14.33333v86c0,7.91917 6.41417,14.33333 14.33333,14.33333h50.16667v14.33333h-14.33333v14.33333h57.33333v-14.33333h-14.33333v-14.33333h50.16667c7.91917,0 14.33333,-6.41417 14.33333,-14.33333v-86c0,-7.91917 -6.41417,-14.33333 -14.33333,-14.33333zM21.5,28.66667h129v86h-129z" />
		<path fill="rgb(182,239,255)" filter="url(#glow)" d="M21.5,14.33333c-7.91917,0 -14.33333,6.41417 -14.33333,14.33333v86c0,7.91917 6.41417,14.33333 14.33333,14.33333h50.16667v14.33333h-14.33333v14.33333h57.33333v-14.33333h-14.33333v-14.33333h50.16667c7.91917,0 14.33333,-6.41417 14.33333,-14.33333v-86c0,-7.91917 -6.41417,-14.33333 -14.33333,-14.33333zM21.5,28.66667h129v86h-129z" />
		<path fill="rgb(182,239,255)" filter="url(#shadow)" d="M21.5,14.33333c-7.91917,0 -14.33333,6.41417 -14.33333,14.33333v86c0,7.91917 6.41417,14.33333 14.33333,14.33333h50.16667v14.33333h-14.33333v14.33333h57.33333v-14.33333h-14.33333v-14.33333h50.16667c7.91917,0 14.33333,-6.41417 14.33333,-14.33333v-86c0,-7.91917 -6.41417,-14.33333 -14.33333,-14.33333zM21.5,28.66667h129v86h-129z" />
	</g>
</svg>