<svg version="1.1" xmlns="http://www.w3.org/2000/svg" width="32" height="26" viewBox="0 0 172 172">
	<defs>
		<filter id="glow" x="-50%" y="-50%" width="300%" height="300%">
			<feGaussianBlur result="blurred" in="SourceGraphic" stdDeviation="10" />
		</filter>

		<filter id="shadow" x="-50%" y="-50%" width="300%" height="300%">
			<feOffset result="offOut" in="SourceAlpha" dx="0" dy="0" />
			<feColorMatrix
			result="matrixOut"
			in="offOut"
			type="matrix"
			values="1 0 0 0 0
					0 1 0 0 0
					0 0 1 0.05 0
					0 0 0 0.2 0"
					/>
			<feGaussianBlur result="blurOut" in="matrixOut" stdDeviation="50" />
		</filter>
	</defs>
	<g>
		<path fill="rgb(118, 226, 255)" d="M64.5,21.5c-35.5587,0 -64.5,28.9413 -64.5,64.5c0,35.5587 28.9413,64.5 64.5,64.5c7.54914,0 14.76099,-1.36305 21.5,-3.7583c6.73901,2.39525 13.95086,3.7583 21.5,3.7583c35.5587,0 64.5,-28.9413 64.5,-64.5c0,-35.5587 -28.9413,-64.5 -64.5,-64.5c-7.54914,0 -14.76099,1.36305 -21.5,3.7583c-6.73901,-2.39525 -13.95086,-3.7583 -21.5,-3.7583zM107.5,32.25c29.74897,0 53.75,24.00103 53.75,53.75c0,29.74897 -24.00103,53.75 -53.75,53.75c-2.28235,0 -4.5123,-0.18762 -6.71875,-0.46192c17.01398,-11.62626 28.21875,-31.17659 28.21875,-53.28808c0,-22.11149 -11.20477,-41.66182 -28.21875,-53.28809c2.20645,-0.2743 4.4364,-0.46191 6.71875,-0.46191zM86,36.76416c18.99343,8.27845 32.25,27.14621 32.25,49.23584c0,22.08963 -13.25657,40.95739 -32.25,49.23584c-18.99343,-8.27845 -32.25,-27.14621 -32.25,-49.23584c0,-22.08963 13.25657,-40.95739 32.25,-49.23584z" />
		<path fill="rgb(182,239,255)" filter="url(#glow)" d="M64.5,21.5c-35.5587,0 -64.5,28.9413 -64.5,64.5c0,35.5587 28.9413,64.5 64.5,64.5c7.54914,0 14.76099,-1.36305 21.5,-3.7583c6.73901,2.39525 13.95086,3.7583 21.5,3.7583c35.5587,0 64.5,-28.9413 64.5,-64.5c0,-35.5587 -28.9413,-64.5 -64.5,-64.5c-7.54914,0 -14.76099,1.36305 -21.5,3.7583c-6.73901,-2.39525 -13.95086,-3.7583 -21.5,-3.7583zM107.5,32.25c29.74897,0 53.75,24.00103 53.75,53.75c0,29.74897 -24.00103,53.75 -53.75,53.75c-2.28235,0 -4.5123,-0.18762 -6.71875,-0.46192c17.01398,-11.62626 28.21875,-31.17659 28.21875,-53.28808c0,-22.11149 -11.20477,-41.66182 -28.21875,-53.28809c2.20645,-0.2743 4.4364,-0.46191 6.71875,-0.46191zM86,36.76416c18.99343,8.27845 32.25,27.14621 32.25,49.23584c0,22.08963 -13.25657,40.95739 -32.25,49.23584c-18.99343,-8.27845 -32.25,-27.14621 -32.25,-49.23584c0,-22.08963 13.25657,-40.95739 32.25,-49.23584z" />
		<path fill="rgb(182,239,255)" filter="url(#shadow)" d="M64.5,21.5c-35.5587,0 -64.5,28.9413 -64.5,64.5c0,35.5587 28.9413,64.5 64.5,64.5c7.54914,0 14.76099,-1.36305 21.5,-3.7583c6.73901,2.39525 13.95086,3.7583 21.5,3.7583c35.5587,0 64.5,-28.9413 64.5,-64.5c0,-35.5587 -28.9413,-64.5 -64.5,-64.5c-7.54914,0 -14.76099,1.36305 -21.5,3.7583c-6.73901,-2.39525 -13.95086,-3.7583 -21.5,-3.7583zM107.5,32.25c29.74897,0 53.75,24.00103 53.75,53.75c0,29.74897 -24.00103,53.75 -53.75,53.75c-2.28235,0 -4.5123,-0.18762 -6.71875,-0.46192c17.01398,-11.62626 28.21875,-31.17659 28.21875,-53.28808c0,-22.11149 -11.20477,-41.66182 -28.21875,-53.28809c2.20645,-0.2743 4.4364,-0.46191 6.71875,-0.46191zM86,36.76416c18.99343,8.27845 32.25,27.14621 32.25,49.23584c0,22.08963 -13.25657,40.95739 -32.25,49.23584c-18.99343,-8.27845 -32.25,-27.14621 -32.25,-49.23584c0,-22.08963 13.25657,-40.95739 32.25,-49.23584z" />
	</g>
</svg>