<svg version="1.1" xmlns="http://www.w3.org/2000/svg" xmlns:xlink="http://www.w3.org/1999/xlink" width="32" height="24" viewBox="0 0 172 172">
	<defs>
		<filter id="glow" x="-50%" y="-50%" width="300%" height="300%">
			<feGaussianBlur result="blurred" in="SourceGraphic" stdDeviation="10" />
		</filter>

		<filter id="shadow" x="-50%" y="-50%" width="300%" height="300%">
			<feOffset result="offOut" in="SourceAlpha" dx="0" dy="0" />
			<feColorMatrix
			result="matrixOut"
			in="offOut"
			type="matrix"
			values="1 0 0 0 0
					0 1 0 0 0
					0 0 1 0.05 0
					0 0 0 0.2 0"
					/>
			<feGaussianBlur result="blurOut" in="matrixOut" stdDeviation="50" />
		</filter>
	</defs>
	<g>
		<path fill="rgb(118, 226, 255)" d="M80.625,10.75c-5.54297,0 -10.91797,0.71386 -16.04101,1.93165l2.51953,10.45605c4.36719,-1.0498 8.90234,-1.6377 13.52148,-1.6377c14.57129,0 27.79883,5.33301 38.08692,14.0254l-11.21192,7.4746l32.25,10.75v-32.25l-11.71582,7.81055c-12.47168,-11.50586 -29.14257,-18.56055 -47.40918,-18.56055zM21.5,21.5l7.89453,11.8418c-11.54785,12.42969 -18.64453,29.01659 -18.64453,47.2832c0,5.50098 0.62989,10.83399 1.84766,15.95703l10.45605,-2.43554c-1.00781,-4.3252 -1.55371,-8.86035 -1.55371,-13.52149c0,-14.57129 5.29102,-27.79882 14.0254,-38.08692l7.4746,11.21192l10.75,-32.25zM148.65234,64.58399l-10.45605,2.43554c1.00781,4.36719 1.55371,8.90234 1.55371,13.60547c0,14.57129 -5.33301,27.79883 -14.02539,38.08692l-7.47461,-11.21192l-10.75,32.25h32.25l-7.81054,-11.71582c11.50585,-12.47168 18.56054,-29.14257 18.56054,-47.40918c0,-5.50098 -0.62989,-10.91797 -1.84766,-16.04101zM21.5,107.5v32.25l11.75781,-7.85254c12.47168,11.54785 29.10058,18.60254 47.36719,18.60254c5.50098,0 10.87598,-0.62989 16.04102,-1.84766l-2.47754,-10.45605c-4.36719,1.00781 -8.90234,1.55371 -13.56348,1.55371c-14.57129,0 -27.84082,-5.29101 -38.12891,-13.9834l11.25391,-7.5166z"></path>
		<path fill="rgb(182,239,255)" filter="url(#glow)" d="M80.625,10.75c-5.54297,0 -10.91797,0.71386 -16.04101,1.93165l2.51953,10.45605c4.36719,-1.0498 8.90234,-1.6377 13.52148,-1.6377c14.57129,0 27.79883,5.33301 38.08692,14.0254l-11.21192,7.4746l32.25,10.75v-32.25l-11.71582,7.81055c-12.47168,-11.50586 -29.14257,-18.56055 -47.40918,-18.56055zM21.5,21.5l7.89453,11.8418c-11.54785,12.42969 -18.64453,29.01659 -18.64453,47.2832c0,5.50098 0.62989,10.83399 1.84766,15.95703l10.45605,-2.43554c-1.00781,-4.3252 -1.55371,-8.86035 -1.55371,-13.52149c0,-14.57129 5.29102,-27.79882 14.0254,-38.08692l7.4746,11.21192l10.75,-32.25zM148.65234,64.58399l-10.45605,2.43554c1.00781,4.36719 1.55371,8.90234 1.55371,13.60547c0,14.57129 -5.33301,27.79883 -14.02539,38.08692l-7.47461,-11.21192l-10.75,32.25h32.25l-7.81054,-11.71582c11.50585,-12.47168 18.56054,-29.14257 18.56054,-47.40918c0,-5.50098 -0.62989,-10.91797 -1.84766,-16.04101zM21.5,107.5v32.25l11.75781,-7.85254c12.47168,11.54785 29.10058,18.60254 47.36719,18.60254c5.50098,0 10.87598,-0.62989 16.04102,-1.84766l-2.47754,-10.45605c-4.36719,1.00781 -8.90234,1.55371 -13.56348,1.55371c-14.57129,0 -27.84082,-5.29101 -38.12891,-13.9834l11.25391,-7.5166z"></path>
		<path fill="rgb(182,239,255)" filter="url(#shadow)" d="M80.625,10.75c-5.54297,0 -10.91797,0.71386 -16.04101,1.93165l2.51953,10.45605c4.36719,-1.0498 8.90234,-1.6377 13.52148,-1.6377c14.57129,0 27.79883,5.33301 38.08692,14.0254l-11.21192,7.4746l32.25,10.75v-32.25l-11.71582,7.81055c-12.47168,-11.50586 -29.14257,-18.56055 -47.40918,-18.56055zM21.5,21.5l7.89453,11.8418c-11.54785,12.42969 -18.64453,29.01659 -18.64453,47.2832c0,5.50098 0.62989,10.83399 1.84766,15.95703l10.45605,-2.43554c-1.00781,-4.3252 -1.55371,-8.86035 -1.55371,-13.52149c0,-14.57129 5.29102,-27.79882 14.0254,-38.08692l7.4746,11.21192l10.75,-32.25zM148.65234,64.58399l-10.45605,2.43554c1.00781,4.36719 1.55371,8.90234 1.55371,13.60547c0,14.57129 -5.33301,27.79883 -14.02539,38.08692l-7.47461,-11.21192l-10.75,32.25h32.25l-7.81054,-11.71582c11.50585,-12.47168 18.56054,-29.14257 18.56054,-47.40918c0,-5.50098 -0.62989,-10.91797 -1.84766,-16.04101zM21.5,107.5v32.25l11.75781,-7.85254c12.47168,11.54785 29.10058,18.60254 47.36719,18.60254c5.50098,0 10.87598,-0.62989 16.04102,-1.84766l-2.47754,-10.45605c-4.36719,1.00781 -8.90234,1.55371 -13.56348,1.55371c-14.57129,0 -27.84082,-5.29101 -38.12891,-13.9834l11.25391,-7.5166z"></path>
	</g>
</svg>