<svg version="1.1" xmlns="http://www.w3.org/2000/svg" width="32" height="26" xmlns:xlink="http://www.w3.org/1999/xlink" viewBox="0 0 172 172">
	<defs>
		<filter id="glow" x="-50%" y="-50%" width="300%" height="300%">
			<feGaussianBlur result="blurred" in="SourceGraphic" stdDeviation="10" />
		</filter>

		<filter id="shadow" x="-50%" y="-50%" width="300%" height="300%">
			<feOffset result="offOut" in="SourceAlpha" dx="0" dy="0" />
			<feColorMatrix
			result="matrixOut"
			in="offOut"
			type="matrix"
			values="1 0 0 0 0
					0 1 0 0 0
					0 0 1 0.05 0
					0 0 0 0.2 0"
					/>
			<feGaussianBlur result="blurOut" in="matrixOut" stdDeviation="50" />
		</filter>
	</defs>
	
	<g>
		<path fill="rgb(118, 226, 255)" d="M48.16,0c-3.03687,0 -5.2675,1.1825 -6.88,2.4725c-0.04031,0.02688 -0.06719,0.08063 -0.1075,0.1075c-0.48375,0.38969 -0.91375,0.80625 -1.29,1.1825c-0.06719,0.06719 -0.14781,0.14781 -0.215,0.215c-0.01344,0.02688 0.01344,0.08063 0,0.1075l-6.1275,6.88c1.34375,-0.40312 2.78156,-0.645 4.3,-0.645h96.32c1.51844,0 2.95625,0.22844 4.3,0.645l-6.3425,-7.2025c-1.72,-2.29781 -4.87781,-3.7625 -7.955,-3.7625zM37.84,17.2c-3.99094,0 -6.88,2.88906 -6.88,6.88v141.04c0,3.99094 2.88906,6.88 6.88,6.88h96.32c3.99094,0 6.88,-2.88906 6.88,-6.88v-141.04c0,-3.99094 -2.88906,-6.88 -6.88,-6.88zM55.04,34.4h61.92c2.06938,0 3.44,1.37063 3.44,3.44v17.2c0,2.06938 -1.37062,3.44 -3.44,3.44h-61.92c-2.06937,0 -3.44,-1.37062 -3.44,-3.44v-17.2c0,-2.06937 1.37063,-3.44 3.44,-3.44zM55.04,65.36h61.92c2.06938,0 3.44,1.37063 3.44,3.44v17.2c0,2.06938 -1.37062,3.44 -3.44,3.44h-61.92c-2.06937,0 -3.44,-1.37062 -3.44,-3.44v-17.2c0,-2.06937 1.37063,-3.44 3.44,-3.44zM86,110.08c3.78938,0 6.88,3.09063 6.88,6.88c0,3.78938 -3.09062,6.88 -6.88,6.88c-3.78937,0 -6.88,-3.09062 -6.88,-6.88c0,-3.78937 3.09063,-6.88 6.88,-6.88zM86,134.16c3.78938,0 6.88,3.09063 6.88,6.88c0,3.78938 -3.09062,6.88 -6.88,6.88c-3.78937,0 -6.88,-3.09062 -6.88,-6.88c0,-3.78937 3.09063,-6.88 6.88,-6.88z" />
		<path fill="rgb(182,239,255)" filter="url(#glow)" d="M48.16,0c-3.03687,0 -5.2675,1.1825 -6.88,2.4725c-0.04031,0.02688 -0.06719,0.08063 -0.1075,0.1075c-0.48375,0.38969 -0.91375,0.80625 -1.29,1.1825c-0.06719,0.06719 -0.14781,0.14781 -0.215,0.215c-0.01344,0.02688 0.01344,0.08063 0,0.1075l-6.1275,6.88c1.34375,-0.40312 2.78156,-0.645 4.3,-0.645h96.32c1.51844,0 2.95625,0.22844 4.3,0.645l-6.3425,-7.2025c-1.72,-2.29781 -4.87781,-3.7625 -7.955,-3.7625zM37.84,17.2c-3.99094,0 -6.88,2.88906 -6.88,6.88v141.04c0,3.99094 2.88906,6.88 6.88,6.88h96.32c3.99094,0 6.88,-2.88906 6.88,-6.88v-141.04c0,-3.99094 -2.88906,-6.88 -6.88,-6.88zM55.04,34.4h61.92c2.06938,0 3.44,1.37063 3.44,3.44v17.2c0,2.06938 -1.37062,3.44 -3.44,3.44h-61.92c-2.06937,0 -3.44,-1.37062 -3.44,-3.44v-17.2c0,-2.06937 1.37063,-3.44 3.44,-3.44zM55.04,65.36h61.92c2.06938,0 3.44,1.37063 3.44,3.44v17.2c0,2.06938 -1.37062,3.44 -3.44,3.44h-61.92c-2.06937,0 -3.44,-1.37062 -3.44,-3.44v-17.2c0,-2.06937 1.37063,-3.44 3.44,-3.44zM86,110.08c3.78938,0 6.88,3.09063 6.88,6.88c0,3.78938 -3.09062,6.88 -6.88,6.88c-3.78937,0 -6.88,-3.09062 -6.88,-6.88c0,-3.78937 3.09063,-6.88 6.88,-6.88zM86,134.16c3.78938,0 6.88,3.09063 6.88,6.88c0,3.78938 -3.09062,6.88 -6.88,6.88c-3.78937,0 -6.88,-3.09062 -6.88,-6.88c0,-3.78937 3.09063,-6.88 6.88,-6.88z" />
		<path fill="rgb(182,239,255)" filter="url(#shadow)" d="M48.16,0c-3.03687,0 -5.2675,1.1825 -6.88,2.4725c-0.04031,0.02688 -0.06719,0.08063 -0.1075,0.1075c-0.48375,0.38969 -0.91375,0.80625 -1.29,1.1825c-0.06719,0.06719 -0.14781,0.14781 -0.215,0.215c-0.01344,0.02688 0.01344,0.08063 0,0.1075l-6.1275,6.88c1.34375,-0.40312 2.78156,-0.645 4.3,-0.645h96.32c1.51844,0 2.95625,0.22844 4.3,0.645l-6.3425,-7.2025c-1.72,-2.29781 -4.87781,-3.7625 -7.955,-3.7625zM37.84,17.2c-3.99094,0 -6.88,2.88906 -6.88,6.88v141.04c0,3.99094 2.88906,6.88 6.88,6.88h96.32c3.99094,0 6.88,-2.88906 6.88,-6.88v-141.04c0,-3.99094 -2.88906,-6.88 -6.88,-6.88zM55.04,34.4h61.92c2.06938,0 3.44,1.37063 3.44,3.44v17.2c0,2.06938 -1.37062,3.44 -3.44,3.44h-61.92c-2.06937,0 -3.44,-1.37062 -3.44,-3.44v-17.2c0,-2.06937 1.37063,-3.44 3.44,-3.44zM55.04,65.36h61.92c2.06938,0 3.44,1.37063 3.44,3.44v17.2c0,2.06938 -1.37062,3.44 -3.44,3.44h-61.92c-2.06937,0 -3.44,-1.37062 -3.44,-3.44v-17.2c0,-2.06937 1.37063,-3.44 3.44,-3.44zM86,110.08c3.78938,0 6.88,3.09063 6.88,6.88c0,3.78938 -3.09062,6.88 -6.88,6.88c-3.78937,0 -6.88,-3.09062 -6.88,-6.88c0,-3.78937 3.09063,-6.88 6.88,-6.88zM86,134.16c3.78938,0 6.88,3.09063 6.88,6.88c0,3.78938 -3.09062,6.88 -6.88,6.88c-3.78937,0 -6.88,-3.09062 -6.88,-6.88c0,-3.78937 3.09063,-6.88 6.88,-6.88z" />
	</g>
</svg>