<svg version="1.1" xmlns="http://www.w3.org/2000/svg" width="32" height="26" xmlns:xlink="http://www.w3.org/1999/xlink" viewBox="0 0 172 172">
	<defs>
		<filter id="glow" x="-50%" y="-50%" width="300%" height="300%">
			<feGaussianBlur result="blurred" in="SourceGraphic" stdDeviation="10" />
		</filter>

		<filter id="shadow" x="-50%" y="-50%" width="300%" height="300%">
			<feOffset result="offOut" in="SourceAlpha" dx="0" dy="0" />
			<feColorMatrix
			result="matrixOut"
			in="offOut"
			type="matrix"
			values="1 0 0 0 0
					0 1 0 0 0
					0 0 1 0.05 0
					0 0 0 0.2 0"
					/>
			<feGaussianBlur result="blurOut" in="matrixOut" stdDeviation="50" />
		</filter>
	</defs>
	
	<g>
		<path fill="rgb(118, 226, 255)" d="M110.51644,17.92367c-11.40093,-0.13278 -22.83071,4.12751 -31.51514,12.81462c-11.45288,11.45288 -14.9001,27.64347 -11.05094,42.28613c-15.14753,15.15066 -41.56009,41.56009 -43.60889,43.60889c-8.52233,8.52233 -8.52233,22.5029 0,31.02523c8.52233,8.52233 22.5029,8.52233 31.02523,0l43.60889,-43.60889c14.64241,3.84874 30.8335,0.40168 42.28613,-11.05094c13.23319,-13.23319 16.18926,-32.8496 8.99333,-49.01188c-0.72096,-1.61718 -2.19204,-2.77562 -3.93319,-3.09728c-1.74115,-0.32166 -3.52903,0.23472 -4.78019,1.48758l-23.50163,23.50163c-3.33483,3.33483 -8.57968,3.33688 -11.91878,0c-3.33317,-3.33317 -3.33189,-8.57945 0,-11.91878v-0.007l23.50163,-23.50163c1.24931,-1.25223 1.80262,-3.03893 1.47968,-4.77806c-0.32294,-1.73913 -1.4808,-3.20808 -3.09638,-3.92832c-4.03991,-1.79914 -8.2934,-2.96429 -12.61165,-3.49235c-1.61935,-0.19802 -3.24939,-0.30997 -4.87809,-0.32894zM110.42545,28.65967c1.2292,0.01682 2.45888,0.09993 3.68132,0.25195c0.49602,0.06169 0.95519,0.32202 1.44873,0.40592l-17.03483,17.03483c-0.00233,0.00233 -0.00467,0.00466 -0.007,0.007c-7.44179,7.44673 -7.437,19.67612 0.007,27.11995c7.44673,7.44179 19.67612,7.44383 27.11995,0l17.04183,-17.04183c1.74053,10.22698 -1.09903,21.03832 -9.02132,28.96061c-9.41046,9.41047 -22.96351,11.94497 -34.68555,7.78255c-1.9531,-0.69479 -4.13167,-0.20461 -5.59896,1.25977l-45.61052,45.61751c-4.4135,4.4135 -11.41055,4.4135 -15.82406,0c-4.4135,-4.41351 -4.4135,-11.41056 0,-15.82406c2.14283,-2.14283 30.92541,-30.92183 45.61051,-45.61052c1.46683,-1.46577 1.95978,-3.64453 1.26677,-5.59896c-4.16242,-11.72204 -1.62792,-25.27508 7.78255,-34.68555c6.59602,-6.59806 15.21915,-9.79697 23.82357,-9.6792z" />
		<path fill="rgb(182,239,255)" filter="url(#glow)" d="M110.51644,17.92367c-11.40093,-0.13278 -22.83071,4.12751 -31.51514,12.81462c-11.45288,11.45288 -14.9001,27.64347 -11.05094,42.28613c-15.14753,15.15066 -41.56009,41.56009 -43.60889,43.60889c-8.52233,8.52233 -8.52233,22.5029 0,31.02523c8.52233,8.52233 22.5029,8.52233 31.02523,0l43.60889,-43.60889c14.64241,3.84874 30.8335,0.40168 42.28613,-11.05094c13.23319,-13.23319 16.18926,-32.8496 8.99333,-49.01188c-0.72096,-1.61718 -2.19204,-2.77562 -3.93319,-3.09728c-1.74115,-0.32166 -3.52903,0.23472 -4.78019,1.48758l-23.50163,23.50163c-3.33483,3.33483 -8.57968,3.33688 -11.91878,0c-3.33317,-3.33317 -3.33189,-8.57945 0,-11.91878v-0.007l23.50163,-23.50163c1.24931,-1.25223 1.80262,-3.03893 1.47968,-4.77806c-0.32294,-1.73913 -1.4808,-3.20808 -3.09638,-3.92832c-4.03991,-1.79914 -8.2934,-2.96429 -12.61165,-3.49235c-1.61935,-0.19802 -3.24939,-0.30997 -4.87809,-0.32894zM110.42545,28.65967c1.2292,0.01682 2.45888,0.09993 3.68132,0.25195c0.49602,0.06169 0.95519,0.32202 1.44873,0.40592l-17.03483,17.03483c-0.00233,0.00233 -0.00467,0.00466 -0.007,0.007c-7.44179,7.44673 -7.437,19.67612 0.007,27.11995c7.44673,7.44179 19.67612,7.44383 27.11995,0l17.04183,-17.04183c1.74053,10.22698 -1.09903,21.03832 -9.02132,28.96061c-9.41046,9.41047 -22.96351,11.94497 -34.68555,7.78255c-1.9531,-0.69479 -4.13167,-0.20461 -5.59896,1.25977l-45.61052,45.61751c-4.4135,4.4135 -11.41055,4.4135 -15.82406,0c-4.4135,-4.41351 -4.4135,-11.41056 0,-15.82406c2.14283,-2.14283 30.92541,-30.92183 45.61051,-45.61052c1.46683,-1.46577 1.95978,-3.64453 1.26677,-5.59896c-4.16242,-11.72204 -1.62792,-25.27508 7.78255,-34.68555c6.59602,-6.59806 15.21915,-9.79697 23.82357,-9.6792z" />
		<path fill="rgb(182,239,255)" filter="url(#shadow)" d="M110.51644,17.92367c-11.40093,-0.13278 -22.83071,4.12751 -31.51514,12.81462c-11.45288,11.45288 -14.9001,27.64347 -11.05094,42.28613c-15.14753,15.15066 -41.56009,41.56009 -43.60889,43.60889c-8.52233,8.52233 -8.52233,22.5029 0,31.02523c8.52233,8.52233 22.5029,8.52233 31.02523,0l43.60889,-43.60889c14.64241,3.84874 30.8335,0.40168 42.28613,-11.05094c13.23319,-13.23319 16.18926,-32.8496 8.99333,-49.01188c-0.72096,-1.61718 -2.19204,-2.77562 -3.93319,-3.09728c-1.74115,-0.32166 -3.52903,0.23472 -4.78019,1.48758l-23.50163,23.50163c-3.33483,3.33483 -8.57968,3.33688 -11.91878,0c-3.33317,-3.33317 -3.33189,-8.57945 0,-11.91878v-0.007l23.50163,-23.50163c1.24931,-1.25223 1.80262,-3.03893 1.47968,-4.77806c-0.32294,-1.73913 -1.4808,-3.20808 -3.09638,-3.92832c-4.03991,-1.79914 -8.2934,-2.96429 -12.61165,-3.49235c-1.61935,-0.19802 -3.24939,-0.30997 -4.87809,-0.32894zM110.42545,28.65967c1.2292,0.01682 2.45888,0.09993 3.68132,0.25195c0.49602,0.06169 0.95519,0.32202 1.44873,0.40592l-17.03483,17.03483c-0.00233,0.00233 -0.00467,0.00466 -0.007,0.007c-7.44179,7.44673 -7.437,19.67612 0.007,27.11995c7.44673,7.44179 19.67612,7.44383 27.11995,0l17.04183,-17.04183c1.74053,10.22698 -1.09903,21.03832 -9.02132,28.96061c-9.41046,9.41047 -22.96351,11.94497 -34.68555,7.78255c-1.9531,-0.69479 -4.13167,-0.20461 -5.59896,1.25977l-45.61052,45.61751c-4.4135,4.4135 -11.41055,4.4135 -15.82406,0c-4.4135,-4.41351 -4.4135,-11.41056 0,-15.82406c2.14283,-2.14283 30.92541,-30.92183 45.61051,-45.61052c1.46683,-1.46577 1.95978,-3.64453 1.26677,-5.59896c-4.16242,-11.72204 -1.62792,-25.27508 7.78255,-34.68555c6.59602,-6.59806 15.21915,-9.79697 23.82357,-9.6792z" />
	</g>
</svg>