<svg version="1.1" xmlns="http://www.w3.org/2000/svg" width="32" height="26" viewBox="0 0 172 172">
	<defs>
		<filter id="glow" x="-50%" y="-50%" width="300%" height="300%">
			<feGaussianBlur result="blurred" in="SourceGraphic" stdDeviation="10" />
		</filter>

		<filter id="shadow" x="-50%" y="-50%" width="300%" height="300%">
			<feOffset result="offOut" in="SourceAlpha" dx="0" dy="0" />
			<feColorMatrix
			result="matrixOut"
			in="offOut"
			type="matrix"
			values="1 0 0 0 0
					0 1 0 0 0
					0 0 1 0.05 0
					0 0 0 0.2 0"
					/>
			<feGaussianBlur result="blurOut" in="matrixOut" stdDeviation="50" />
		</filter>
	</defs>
	
	<g>
		<g>
			<path fill="rgb(118, 226, 255)" d="M60.42676,21.66797l41.61426,10.41406l34.8955,-10.2041c0.08399,-0.04199 0.12598,-0.04199 0.20997,-0.04199c6.67675,-1.67969 13.35351,3.52734 13.35351,10.41406v38.72147c-3.40634,-1.74623 -7.00308,-3.17147 -10.75,-4.23552v-34.48595l-36.11328,10.54004c-0.92382,0.25195 -1.88965,0.29395 -2.81348,0.04199l-41.61425,-10.41406l-37.70899,10.62402v96.54004l36.11328,-10.37207c0.92383,-0.25195 1.88965,-0.29394 2.81348,-0.04199l4.44567,1.11254c0.45404,4.03235 1.31555,7.94343 2.54223,11.69095l-8.20567,-2.05349l-34.9375,10.07813c-0.042,0 -0.08399,0 -0.16797,0c-6.67676,1.67969 -13.35352,-3.52734 -13.35352,-10.41406v-100.61328c0,-2.39355 1.59571,-4.53516 3.94727,-5.16504l43,-12.09375c0.33594,-0.12597 0.75585,-0.16797 1.13378,-0.20996c0.54591,-0.04199 1.0918,0.04199 1.59571,0.16797zM53.75,64.5c0,5.9209 -4.8291,10.75 -10.75,10.75c-5.9209,0 -10.75,-4.8291 -10.75,-10.75c0,-5.9209 4.8291,-10.75 10.75,-10.75c5.9209,0 10.75,4.8291 10.75,10.75zM118.25,59.125c0,2.98145 -2.39355,5.375 -5.375,5.375c-2.98145,0 -5.375,-2.39355 -5.375,-5.375c0,-2.98145 2.39355,-5.375 5.375,-5.375c2.98145,0 5.375,2.39355 5.375,5.375zM75.25,80.625c0,2.98145 -2.39355,5.375 -5.375,5.375c-2.98145,0 -5.375,-2.39355 -5.375,-5.375c0,-2.98145 2.39355,-5.375 5.375,-5.375c2.98145,0 5.375,2.39355 5.375,5.375zM43,91.375c0,2.98145 -2.39355,5.375 -5.375,5.375c-2.98145,0 -5.375,-2.39355 -5.375,-5.375c0,-2.98145 2.39355,-5.375 5.375,-5.375c2.98145,0 5.375,2.39355 5.375,5.375zM53.75,112.875c0,2.98145 -2.39355,5.375 -5.375,5.375c-2.98145,0 -5.375,-2.39355 -5.375,-5.375c0,-2.98145 2.39355,-5.375 5.375,-5.375c2.98145,0 5.375,2.39355 5.375,5.375z"></path>
			<path fill="rgb(182,239,255)" filter="url(#glow)" d="M60.42676,21.66797l41.61426,10.41406l34.8955,-10.2041c0.08399,-0.04199 0.12598,-0.04199 0.20997,-0.04199c6.67675,-1.67969 13.35351,3.52734 13.35351,10.41406v38.72147c-3.40634,-1.74623 -7.00308,-3.17147 -10.75,-4.23552v-34.48595l-36.11328,10.54004c-0.92382,0.25195 -1.88965,0.29395 -2.81348,0.04199l-41.61425,-10.41406l-37.70899,10.62402v96.54004l36.11328,-10.37207c0.92383,-0.25195 1.88965,-0.29394 2.81348,-0.04199l4.44567,1.11254c0.45404,4.03235 1.31555,7.94343 2.54223,11.69095l-8.20567,-2.05349l-34.9375,10.07813c-0.042,0 -0.08399,0 -0.16797,0c-6.67676,1.67969 -13.35352,-3.52734 -13.35352,-10.41406v-100.61328c0,-2.39355 1.59571,-4.53516 3.94727,-5.16504l43,-12.09375c0.33594,-0.12597 0.75585,-0.16797 1.13378,-0.20996c0.54591,-0.04199 1.0918,0.04199 1.59571,0.16797zM53.75,64.5c0,5.9209 -4.8291,10.75 -10.75,10.75c-5.9209,0 -10.75,-4.8291 -10.75,-10.75c0,-5.9209 4.8291,-10.75 10.75,-10.75c5.9209,0 10.75,4.8291 10.75,10.75zM118.25,59.125c0,2.98145 -2.39355,5.375 -5.375,5.375c-2.98145,0 -5.375,-2.39355 -5.375,-5.375c0,-2.98145 2.39355,-5.375 5.375,-5.375c2.98145,0 5.375,2.39355 5.375,5.375zM75.25,80.625c0,2.98145 -2.39355,5.375 -5.375,5.375c-2.98145,0 -5.375,-2.39355 -5.375,-5.375c0,-2.98145 2.39355,-5.375 5.375,-5.375c2.98145,0 5.375,2.39355 5.375,5.375zM43,91.375c0,2.98145 -2.39355,5.375 -5.375,5.375c-2.98145,0 -5.375,-2.39355 -5.375,-5.375c0,-2.98145 2.39355,-5.375 5.375,-5.375c2.98145,0 5.375,2.39355 5.375,5.375zM53.75,112.875c0,2.98145 -2.39355,5.375 -5.375,5.375c-2.98145,0 -5.375,-2.39355 -5.375,-5.375c0,-2.98145 2.39355,-5.375 5.375,-5.375c2.98145,0 5.375,2.39355 5.375,5.375z"></path>
			<path fill="rgb(182,239,255)" filter="url(#shadow)" d="M60.42676,21.66797l41.61426,10.41406l34.8955,-10.2041c0.08399,-0.04199 0.12598,-0.04199 0.20997,-0.04199c6.67675,-1.67969 13.35351,3.52734 13.35351,10.41406v38.72147c-3.40634,-1.74623 -7.00308,-3.17147 -10.75,-4.23552v-34.48595l-36.11328,10.54004c-0.92382,0.25195 -1.88965,0.29395 -2.81348,0.04199l-41.61425,-10.41406l-37.70899,10.62402v96.54004l36.11328,-10.37207c0.92383,-0.25195 1.88965,-0.29394 2.81348,-0.04199l4.44567,1.11254c0.45404,4.03235 1.31555,7.94343 2.54223,11.69095l-8.20567,-2.05349l-34.9375,10.07813c-0.042,0 -0.08399,0 -0.16797,0c-6.67676,1.67969 -13.35352,-3.52734 -13.35352,-10.41406v-100.61328c0,-2.39355 1.59571,-4.53516 3.94727,-5.16504l43,-12.09375c0.33594,-0.12597 0.75585,-0.16797 1.13378,-0.20996c0.54591,-0.04199 1.0918,0.04199 1.59571,0.16797zM53.75,64.5c0,5.9209 -4.8291,10.75 -10.75,10.75c-5.9209,0 -10.75,-4.8291 -10.75,-10.75c0,-5.9209 4.8291,-10.75 10.75,-10.75c5.9209,0 10.75,4.8291 10.75,10.75zM118.25,59.125c0,2.98145 -2.39355,5.375 -5.375,5.375c-2.98145,0 -5.375,-2.39355 -5.375,-5.375c0,-2.98145 2.39355,-5.375 5.375,-5.375c2.98145,0 5.375,2.39355 5.375,5.375zM75.25,80.625c0,2.98145 -2.39355,5.375 -5.375,5.375c-2.98145,0 -5.375,-2.39355 -5.375,-5.375c0,-2.98145 2.39355,-5.375 5.375,-5.375c2.98145,0 5.375,2.39355 5.375,5.375zM43,91.375c0,2.98145 -2.39355,5.375 -5.375,5.375c-2.98145,0 -5.375,-2.39355 -5.375,-5.375c0,-2.98145 2.39355,-5.375 5.375,-5.375c2.98145,0 5.375,2.39355 5.375,5.375zM53.75,112.875c0,2.98145 -2.39355,5.375 -5.375,5.375c-2.98145,0 -5.375,-2.39355 -5.375,-5.375c0,-2.98145 2.39355,-5.375 5.375,-5.375c2.98145,0 5.375,2.39355 5.375,5.375z"></path>
		</g>
		<g>
			<path fill="rgb(231, 255, 159)" d="M123.625,75.25c-26.67075,0 -48.375,21.70425 -48.375,48.375c0,26.67075 21.70425,48.375 48.375,48.375c26.67075,0 48.375,-21.70425 48.375,-48.375c0,-26.67075 -21.70425,-48.375 -48.375,-48.375zM123.625,161.25c-20.7475,0 -37.625,-16.8775 -37.625,-37.625c0,-20.7475 16.8775,-37.625 37.625,-37.625c20.7475,0 37.625,16.8775 37.625,37.625c0,20.7475 -16.8775,37.625 -37.625,37.625z"></path>
			<path fill="rgb(231, 255, 159)" d="M129,118.25v-21.5h-10.75v21.5h-21.5v10.75h21.5v21.5h10.75v-21.5h21.5v-10.75z"></path>
		</g>
		<g>
			<path fill="rgb(190, 244, 123)" filter="url(#glow)" d="M123.625,75.25c-26.67075,0 -48.375,21.70425 -48.375,48.375c0,26.67075 21.70425,48.375 48.375,48.375c26.67075,0 48.375,-21.70425 48.375,-48.375c0,-26.67075 -21.70425,-48.375 -48.375,-48.375zM123.625,161.25c-20.7475,0 -37.625,-16.8775 -37.625,-37.625c0,-20.7475 16.8775,-37.625 37.625,-37.625c20.7475,0 37.625,16.8775 37.625,37.625c0,20.7475 -16.8775,37.625 -37.625,37.625z"></path>
			<path fill="rgb(190, 244, 123)" filter="url(#glow)" d="M129,118.25v-21.5h-10.75v21.5h-21.5v10.75h21.5v21.5h10.75v-21.5h21.5v-10.75z"></path>
		</g>
		<g>
			<path fill="rgb(190, 244, 123)" filter="url(#shadow)" d="M123.625,75.25c-26.67075,0 -48.375,21.70425 -48.375,48.375c0,26.67075 21.70425,48.375 48.375,48.375c26.67075,0 48.375,-21.70425 48.375,-48.375c0,-26.67075 -21.70425,-48.375 -48.375,-48.375zM123.625,161.25c-20.7475,0 -37.625,-16.8775 -37.625,-37.625c0,-20.7475 16.8775,-37.625 37.625,-37.625c20.7475,0 37.625,16.8775 37.625,37.625c0,20.7475 -16.8775,37.625 -37.625,37.625z"></path>
			<path fill="rgb(190, 244, 123)" filter="url(#shadow)" d="M129,118.25v-21.5h-10.75v21.5h-21.5v10.75h21.5v21.5h10.75v-21.5h21.5v-10.75z"></path>
		</g>
	</g>
</svg>