<svg version="1.1" xmlns="http://www.w3.org/2000/svg" width="32" height="26" viewBox="0 0 172 172">
	<defs>
		<filter id="glow" x="-50%" y="-50%" width="300%" height="300%">
			<feGaussianBlur result="blurred" in="SourceGraphic" stdDeviation="10" />
		</filter>

		<filter id="shadow" x="-50%" y="-50%" width="300%" height="300%">
			<feOffset result="offOut" in="SourceAlpha" dx="0" dy="0" />
			<feColorMatrix
			result="matrixOut"
			in="offOut"
			type="matrix"
			values="1 0 0 0 0
					0 1 0 0 0
					0 0 1 0.05 0
					0 0 0 0.2 0"
					/>
			<feGaussianBlur result="blurOut" in="matrixOut" stdDeviation="50" />
		</filter>
	</defs>
	<g>
		<path fill="rgb(255, 168, 95)" d="M69.83301,10.75c-8.81836,0 -16.08301,7.26465 -16.08301,16.08301v5.41699h-32.25v10.75h10.75v91.375c0,8.86035 7.26465,16.125 16.125,16.125h64.5c8.86035,0 16.125,-7.26465 16.125,-16.125v-91.375h10.75v-10.75h-32.25v-5.41699c0,-8.81836 -7.26465,-16.08301 -16.08301,-16.08301zM69.83301,21.5h21.58398c3.02344,0 5.33301,2.30957 5.33301,5.33301v16.16699h21.5v91.375c0,3.02344 -2.35156,5.375 -5.375,5.375h-64.5c-3.02344,0 -5.375,-2.35156 -5.375,-5.375v-91.375h21.5v-16.16699c0,-3.02344 2.30957,-5.33301 5.33301,-5.33301zM61.56055,64.75196l-7.55859,7.55859l19.02246,19.06445l-19.02246,19.02246l7.55859,7.64258l19.06445,-19.06446l19.06446,19.06446l7.55859,-7.64258l-19.02247,-19.02246l19.02247,-19.06445l-7.55859,-7.55859l-19.06446,19.02246z"></path>
		<path fill="rgb(255, 141, 67)" filter="url(#glow)" d="M69.83301,10.75c-8.81836,0 -16.08301,7.26465 -16.08301,16.08301v5.41699h-32.25v10.75h10.75v91.375c0,8.86035 7.26465,16.125 16.125,16.125h64.5c8.86035,0 16.125,-7.26465 16.125,-16.125v-91.375h10.75v-10.75h-32.25v-5.41699c0,-8.81836 -7.26465,-16.08301 -16.08301,-16.08301zM69.83301,21.5h21.58398c3.02344,0 5.33301,2.30957 5.33301,5.33301v16.16699h21.5v91.375c0,3.02344 -2.35156,5.375 -5.375,5.375h-64.5c-3.02344,0 -5.375,-2.35156 -5.375,-5.375v-91.375h21.5v-16.16699c0,-3.02344 2.30957,-5.33301 5.33301,-5.33301zM61.56055,64.75196l-7.55859,7.55859l19.02246,19.06445l-19.02246,19.02246l7.55859,7.64258l19.06445,-19.06446l19.06446,19.06446l7.55859,-7.64258l-19.02247,-19.02246l19.02247,-19.06445l-7.55859,-7.55859l-19.06446,19.02246z"></path>
		<path fill="rgb(255, 141, 67)" filter="url(#shadow)" d="M69.83301,10.75c-8.81836,0 -16.08301,7.26465 -16.08301,16.08301v5.41699h-32.25v10.75h10.75v91.375c0,8.86035 7.26465,16.125 16.125,16.125h64.5c8.86035,0 16.125,-7.26465 16.125,-16.125v-91.375h10.75v-10.75h-32.25v-5.41699c0,-8.81836 -7.26465,-16.08301 -16.08301,-16.08301zM69.83301,21.5h21.58398c3.02344,0 5.33301,2.30957 5.33301,5.33301v16.16699h21.5v91.375c0,3.02344 -2.35156,5.375 -5.375,5.375h-64.5c-3.02344,0 -5.375,-2.35156 -5.375,-5.375v-91.375h21.5v-16.16699c0,-3.02344 2.30957,-5.33301 5.33301,-5.33301zM61.56055,64.75196l-7.55859,7.55859l19.02246,19.06445l-19.02246,19.02246l7.55859,7.64258l19.06445,-19.06446l19.06446,19.06446l7.55859,-7.64258l-19.02247,-19.02246l19.02247,-19.06445l-7.55859,-7.55859l-19.06446,19.02246z"></path>
	</g>
</svg>