<svg version="1.1" xmlns="http://www.w3.org/2000/svg" width="32" height="26" xmlns:xlink="http://www.w3.org/1999/xlink" viewBox="0 0 172 172">
	<defs>
		<filter id="glow" x="-50%" y="-50%" width="300%" height="300%">
			<feGaussianBlur result="blurred" in="SourceGraphic" stdDeviation="10" />
		</filter>

		<filter id="shadow" x="-50%" y="-50%" width="300%" height="300%">
			<feOffset result="offOut" in="SourceAlpha" dx="0" dy="0" />
			<feColorMatrix
			result="matrixOut"
			in="offOut"
			type="matrix"
			values="1 0 0 0 0
					0 1 0 0 0
					0 0 1 0.05 0
					0 0 0 0.2 0"
					/>
			<feGaussianBlur result="blurOut" in="matrixOut" stdDeviation="50" />
		</filter>
	</defs>
	
	<g>
		<path fill="rgb(118, 226, 255)" d="M86,28.66667c-57.33333,0 -78.83333,57.33333 -78.83333,57.33333c0,0 21.5,57.33333 78.83333,57.33333c57.33333,0 78.83333,-57.33333 78.83333,-57.33333c0,0 -21.5,-57.33333 -78.83333,-57.33333zM86,43c37.81133,0 56.93626,30.58084 63.12826,42.97201c-6.19917,12.30517 -25.46742,43.02799 -63.12826,43.02799c-37.81133,0 -56.93626,-30.58084 -63.12826,-42.97201c6.20633,-12.30517 25.46742,-43.02799 63.12826,-43.02799zM86,57.33333c-15.83117,0 -28.66667,12.8355 -28.66667,28.66667c0,15.83117 12.8355,28.66667 28.66667,28.66667c15.83117,0 28.66667,-12.8355 28.66667,-28.66667c0,-15.83117 -12.8355,-28.66667 -28.66667,-28.66667zM86,71.66667c7.91917,0 14.33333,6.41417 14.33333,14.33333c0,7.91917 -6.41417,14.33333 -14.33333,14.33333c-7.91917,0 -14.33333,-6.41417 -14.33333,-14.33333c0,-7.91917 6.41417,-14.33333 14.33333,-14.33333z"></path>
		<path fill="rgb(182,239,255)" filter="url(#glow)" d="M86,28.66667c-57.33333,0 -78.83333,57.33333 -78.83333,57.33333c0,0 21.5,57.33333 78.83333,57.33333c57.33333,0 78.83333,-57.33333 78.83333,-57.33333c0,0 -21.5,-57.33333 -78.83333,-57.33333zM86,43c37.81133,0 56.93626,30.58084 63.12826,42.97201c-6.19917,12.30517 -25.46742,43.02799 -63.12826,43.02799c-37.81133,0 -56.93626,-30.58084 -63.12826,-42.97201c6.20633,-12.30517 25.46742,-43.02799 63.12826,-43.02799zM86,57.33333c-15.83117,0 -28.66667,12.8355 -28.66667,28.66667c0,15.83117 12.8355,28.66667 28.66667,28.66667c15.83117,0 28.66667,-12.8355 28.66667,-28.66667c0,-15.83117 -12.8355,-28.66667 -28.66667,-28.66667zM86,71.66667c7.91917,0 14.33333,6.41417 14.33333,14.33333c0,7.91917 -6.41417,14.33333 -14.33333,14.33333c-7.91917,0 -14.33333,-6.41417 -14.33333,-14.33333c0,-7.91917 6.41417,-14.33333 14.33333,-14.33333z"></path>
		<path fill="rgb(182,239,255)" filter="url(#shadow)" d="M86,28.66667c-57.33333,0 -78.83333,57.33333 -78.83333,57.33333c0,0 21.5,57.33333 78.83333,57.33333c57.33333,0 78.83333,-57.33333 78.83333,-57.33333c0,0 -21.5,-57.33333 -78.83333,-57.33333zM86,43c37.81133,0 56.93626,30.58084 63.12826,42.97201c-6.19917,12.30517 -25.46742,43.02799 -63.12826,43.02799c-37.81133,0 -56.93626,-30.58084 -63.12826,-42.97201c6.20633,-12.30517 25.46742,-43.02799 63.12826,-43.02799zM86,57.33333c-15.83117,0 -28.66667,12.8355 -28.66667,28.66667c0,15.83117 12.8355,28.66667 28.66667,28.66667c15.83117,0 28.66667,-12.8355 28.66667,-28.66667c0,-15.83117 -12.8355,-28.66667 -28.66667,-28.66667zM86,71.66667c7.91917,0 14.33333,6.41417 14.33333,14.33333c0,7.91917 -6.41417,14.33333 -14.33333,14.33333c-7.91917,0 -14.33333,-6.41417 -14.33333,-14.33333c0,-7.91917 6.41417,-14.33333 14.33333,-14.33333z"></path>
	</g>
</svg>