<svg version="1.1" xmlns="http://www.w3.org/2000/svg" width="32" height="26" xmlns:xlink="http://www.w3.org/1999/xlink" viewBox="0 0 172 172">
	<defs>
		<filter id="glow" x="-50%" y="-50%" width="300%" height="300%">
			<feGaussianBlur result="blurred" in="SourceGraphic" stdDeviation="10" />
		</filter>

		<filter id="shadow" x="-50%" y="-50%" width="300%" height="300%">
			<feOffset result="offOut" in="SourceAlpha" dx="0" dy="0" />
			<feColorMatrix
			result="matrixOut"
			in="offOut"
			type="matrix"
			values="1 0 0 0 0
					0 1 0 0 0
					0 0 1 0.05 0
					0 0 0 0.2 0"
					/>
			<feGaussianBlur result="blurOut" in="matrixOut" stdDeviation="50" />
		</filter>
	</defs>
	
	<g>
		<path fill="rgb(118, 226, 255)" d="M86,21.5c-17.74623,0 -32.25,14.50376 -32.25,32.25c0,11.78954 7.44287,23.9723 14.38232,34.09766c6.93946,10.12536 13.85742,17.85718 13.85742,17.85718l3.99976,4.47217l4.01026,-4.46167c0,0 6.9252,-7.68767 13.86792,-17.79419c6.94272,-10.10652 14.38232,-22.31618 14.38232,-34.17114c0,-17.74624 -14.50377,-32.25 -32.25,-32.25zM86,32.25c11.93452,0 21.5,9.56549 21.5,21.5c0,6.65116 -5.99789,18.62782 -12.49268,28.08227c-4.49369,6.54147 -6.65042,8.80118 -8.99683,11.55835c-2.34547,-2.77007 -4.51636,-5.05325 -9.01782,-11.62134c-6.49805,-9.4813 -12.49268,-21.48545 -12.49268,-28.01929c0,-11.93451 9.56548,-21.5 21.5,-21.5zM86,45.6875c-4.4505,0 -8.0625,3.612 -8.0625,8.0625c0,4.4505 3.612,8.0625 8.0625,8.0625c4.4505,0 8.0625,-3.612 8.0625,-8.0625c0,-4.4505 -3.612,-8.0625 -8.0625,-8.0625zM40.3125,86c-5.82292,0 -10.8742,2.37713 -14.09888,6.00489c-3.22467,3.62775 -4.71362,8.2538 -4.71362,12.80761c0,4.55382 1.48895,9.17986 4.71362,12.80761c3.22467,3.62776 8.27596,6.00489 14.09888,6.00489c4.91288,0 9.01882,-1.93274 12.19873,-4.64014l18.58154,12.10425c-0.23476,1.15337 -1.21777,2.12136 -1.21777,3.28589c0,3.88194 1.26499,7.83612 4.04175,10.95996c2.77676,3.12385 7.15617,5.16504 12.08325,5.16504c4.92708,0 9.3065,-2.04119 12.08325,-5.16504c2.77676,-3.12385 4.04175,-7.07801 4.04175,-10.95996c0,-0.82563 -0.74378,-1.50697 -0.86084,-2.33057l22.51831,-12.51367c2.75376,2.39785 6.36678,4.09424 10.59253,4.09424c4.92708,0 9.3065,-2.04119 12.08325,-5.16504c2.77676,-3.12385 4.04175,-7.07802 4.04175,-10.95996c0,-3.88194 -1.26499,-7.83611 -4.04175,-10.95996c-2.77676,-3.12385 -7.15617,-5.16504 -12.08325,-5.16504c-4.92708,0 -9.3065,2.04119 -12.08325,5.16504c-2.77676,3.12385 -4.04175,7.07802 -4.04175,10.95996c0,0.82563 0.74378,1.50697 0.86084,2.33057l-22.51831,12.51367c-2.75376,-2.39785 -6.36678,-4.09424 -10.59253,-4.09424c-3.78601,0 -6.99853,1.44726 -9.6582,3.42236l-18.89648,-12.29322c0.39028,-1.59369 1.67969,-2.94307 1.67969,-4.56665c0,-4.55382 -1.48895,-9.17986 -4.71362,-12.80761c-3.22467,-3.62776 -8.27596,-6.00489 -14.09888,-6.00489zM40.3125,96.75c3.13541,0 4.80288,0.98225 6.05737,2.39355c1.25449,1.41131 2.00513,3.50402 2.00513,5.66895c0,2.16493 -0.75064,4.25764 -2.00513,5.66895c-1.25449,1.4113 -2.92196,2.39355 -6.05737,2.39355c-3.13541,0 -4.80288,-0.98225 -6.05737,-2.39355c-1.25449,-1.41131 -2.00513,-3.50402 -2.00513,-5.66895c0,-2.16493 0.75064,-4.25764 2.00513,-5.66895c1.25449,-1.4113 2.92196,-2.39355 6.05737,-2.39355zM134.375,102.125c2.23958,0 3.23517,0.64631 4.04175,1.55371c0.80658,0.9074 1.33325,2.32823 1.33325,3.82129c0,1.49306 -0.5267,2.91389 -1.33325,3.82129c-0.80657,0.9074 -1.80217,1.55371 -4.04175,1.55371c-2.23958,0 -3.23517,-0.64631 -4.04175,-1.55371c-0.80658,-0.9074 -1.33325,-2.32823 -1.33325,-3.82129c0,-1.49306 0.52667,-2.91389 1.33325,-3.82129c0.80657,-0.9074 1.80217,-1.55371 4.04175,-1.55371zM86,129c2.23958,0 3.23517,0.64631 4.04175,1.55371c0.80658,0.9074 1.33325,2.32824 1.33325,3.82129c0,1.49306 -0.5267,2.91388 -1.33325,3.82129c-0.80657,0.9074 -1.80217,1.55371 -4.04175,1.55371c-2.23958,0 -3.23517,-0.64631 -4.04175,-1.55371c-0.80658,-0.9074 -1.33325,-2.32824 -1.33325,-3.82129c0,-1.49306 0.52667,-2.91388 1.33325,-3.82129c0.80657,-0.9074 1.80217,-1.55371 4.04175,-1.55371z" />
		<path fill="rgb(182,239,255)" filter="url(#glow)" d="M86,21.5c-17.74623,0 -32.25,14.50376 -32.25,32.25c0,11.78954 7.44287,23.9723 14.38232,34.09766c6.93946,10.12536 13.85742,17.85718 13.85742,17.85718l3.99976,4.47217l4.01026,-4.46167c0,0 6.9252,-7.68767 13.86792,-17.79419c6.94272,-10.10652 14.38232,-22.31618 14.38232,-34.17114c0,-17.74624 -14.50377,-32.25 -32.25,-32.25zM86,32.25c11.93452,0 21.5,9.56549 21.5,21.5c0,6.65116 -5.99789,18.62782 -12.49268,28.08227c-4.49369,6.54147 -6.65042,8.80118 -8.99683,11.55835c-2.34547,-2.77007 -4.51636,-5.05325 -9.01782,-11.62134c-6.49805,-9.4813 -12.49268,-21.48545 -12.49268,-28.01929c0,-11.93451 9.56548,-21.5 21.5,-21.5zM86,45.6875c-4.4505,0 -8.0625,3.612 -8.0625,8.0625c0,4.4505 3.612,8.0625 8.0625,8.0625c4.4505,0 8.0625,-3.612 8.0625,-8.0625c0,-4.4505 -3.612,-8.0625 -8.0625,-8.0625zM40.3125,86c-5.82292,0 -10.8742,2.37713 -14.09888,6.00489c-3.22467,3.62775 -4.71362,8.2538 -4.71362,12.80761c0,4.55382 1.48895,9.17986 4.71362,12.80761c3.22467,3.62776 8.27596,6.00489 14.09888,6.00489c4.91288,0 9.01882,-1.93274 12.19873,-4.64014l18.58154,12.10425c-0.23476,1.15337 -1.21777,2.12136 -1.21777,3.28589c0,3.88194 1.26499,7.83612 4.04175,10.95996c2.77676,3.12385 7.15617,5.16504 12.08325,5.16504c4.92708,0 9.3065,-2.04119 12.08325,-5.16504c2.77676,-3.12385 4.04175,-7.07801 4.04175,-10.95996c0,-0.82563 -0.74378,-1.50697 -0.86084,-2.33057l22.51831,-12.51367c2.75376,2.39785 6.36678,4.09424 10.59253,4.09424c4.92708,0 9.3065,-2.04119 12.08325,-5.16504c2.77676,-3.12385 4.04175,-7.07802 4.04175,-10.95996c0,-3.88194 -1.26499,-7.83611 -4.04175,-10.95996c-2.77676,-3.12385 -7.15617,-5.16504 -12.08325,-5.16504c-4.92708,0 -9.3065,2.04119 -12.08325,5.16504c-2.77676,3.12385 -4.04175,7.07802 -4.04175,10.95996c0,0.82563 0.74378,1.50697 0.86084,2.33057l-22.51831,12.51367c-2.75376,-2.39785 -6.36678,-4.09424 -10.59253,-4.09424c-3.78601,0 -6.99853,1.44726 -9.6582,3.42236l-18.89648,-12.29322c0.39028,-1.59369 1.67969,-2.94307 1.67969,-4.56665c0,-4.55382 -1.48895,-9.17986 -4.71362,-12.80761c-3.22467,-3.62776 -8.27596,-6.00489 -14.09888,-6.00489zM40.3125,96.75c3.13541,0 4.80288,0.98225 6.05737,2.39355c1.25449,1.41131 2.00513,3.50402 2.00513,5.66895c0,2.16493 -0.75064,4.25764 -2.00513,5.66895c-1.25449,1.4113 -2.92196,2.39355 -6.05737,2.39355c-3.13541,0 -4.80288,-0.98225 -6.05737,-2.39355c-1.25449,-1.41131 -2.00513,-3.50402 -2.00513,-5.66895c0,-2.16493 0.75064,-4.25764 2.00513,-5.66895c1.25449,-1.4113 2.92196,-2.39355 6.05737,-2.39355zM134.375,102.125c2.23958,0 3.23517,0.64631 4.04175,1.55371c0.80658,0.9074 1.33325,2.32823 1.33325,3.82129c0,1.49306 -0.5267,2.91389 -1.33325,3.82129c-0.80657,0.9074 -1.80217,1.55371 -4.04175,1.55371c-2.23958,0 -3.23517,-0.64631 -4.04175,-1.55371c-0.80658,-0.9074 -1.33325,-2.32823 -1.33325,-3.82129c0,-1.49306 0.52667,-2.91389 1.33325,-3.82129c0.80657,-0.9074 1.80217,-1.55371 4.04175,-1.55371zM86,129c2.23958,0 3.23517,0.64631 4.04175,1.55371c0.80658,0.9074 1.33325,2.32824 1.33325,3.82129c0,1.49306 -0.5267,2.91388 -1.33325,3.82129c-0.80657,0.9074 -1.80217,1.55371 -4.04175,1.55371c-2.23958,0 -3.23517,-0.64631 -4.04175,-1.55371c-0.80658,-0.9074 -1.33325,-2.32824 -1.33325,-3.82129c0,-1.49306 0.52667,-2.91388 1.33325,-3.82129c0.80657,-0.9074 1.80217,-1.55371 4.04175,-1.55371z" />
		<path fill="rgb(182,239,255)" filter="url(#shadow)" d="M86,21.5c-17.74623,0 -32.25,14.50376 -32.25,32.25c0,11.78954 7.44287,23.9723 14.38232,34.09766c6.93946,10.12536 13.85742,17.85718 13.85742,17.85718l3.99976,4.47217l4.01026,-4.46167c0,0 6.9252,-7.68767 13.86792,-17.79419c6.94272,-10.10652 14.38232,-22.31618 14.38232,-34.17114c0,-17.74624 -14.50377,-32.25 -32.25,-32.25zM86,32.25c11.93452,0 21.5,9.56549 21.5,21.5c0,6.65116 -5.99789,18.62782 -12.49268,28.08227c-4.49369,6.54147 -6.65042,8.80118 -8.99683,11.55835c-2.34547,-2.77007 -4.51636,-5.05325 -9.01782,-11.62134c-6.49805,-9.4813 -12.49268,-21.48545 -12.49268,-28.01929c0,-11.93451 9.56548,-21.5 21.5,-21.5zM86,45.6875c-4.4505,0 -8.0625,3.612 -8.0625,8.0625c0,4.4505 3.612,8.0625 8.0625,8.0625c4.4505,0 8.0625,-3.612 8.0625,-8.0625c0,-4.4505 -3.612,-8.0625 -8.0625,-8.0625zM40.3125,86c-5.82292,0 -10.8742,2.37713 -14.09888,6.00489c-3.22467,3.62775 -4.71362,8.2538 -4.71362,12.80761c0,4.55382 1.48895,9.17986 4.71362,12.80761c3.22467,3.62776 8.27596,6.00489 14.09888,6.00489c4.91288,0 9.01882,-1.93274 12.19873,-4.64014l18.58154,12.10425c-0.23476,1.15337 -1.21777,2.12136 -1.21777,3.28589c0,3.88194 1.26499,7.83612 4.04175,10.95996c2.77676,3.12385 7.15617,5.16504 12.08325,5.16504c4.92708,0 9.3065,-2.04119 12.08325,-5.16504c2.77676,-3.12385 4.04175,-7.07801 4.04175,-10.95996c0,-0.82563 -0.74378,-1.50697 -0.86084,-2.33057l22.51831,-12.51367c2.75376,2.39785 6.36678,4.09424 10.59253,4.09424c4.92708,0 9.3065,-2.04119 12.08325,-5.16504c2.77676,-3.12385 4.04175,-7.07802 4.04175,-10.95996c0,-3.88194 -1.26499,-7.83611 -4.04175,-10.95996c-2.77676,-3.12385 -7.15617,-5.16504 -12.08325,-5.16504c-4.92708,0 -9.3065,2.04119 -12.08325,5.16504c-2.77676,3.12385 -4.04175,7.07802 -4.04175,10.95996c0,0.82563 0.74378,1.50697 0.86084,2.33057l-22.51831,12.51367c-2.75376,-2.39785 -6.36678,-4.09424 -10.59253,-4.09424c-3.78601,0 -6.99853,1.44726 -9.6582,3.42236l-18.89648,-12.29322c0.39028,-1.59369 1.67969,-2.94307 1.67969,-4.56665c0,-4.55382 -1.48895,-9.17986 -4.71362,-12.80761c-3.22467,-3.62776 -8.27596,-6.00489 -14.09888,-6.00489zM40.3125,96.75c3.13541,0 4.80288,0.98225 6.05737,2.39355c1.25449,1.41131 2.00513,3.50402 2.00513,5.66895c0,2.16493 -0.75064,4.25764 -2.00513,5.66895c-1.25449,1.4113 -2.92196,2.39355 -6.05737,2.39355c-3.13541,0 -4.80288,-0.98225 -6.05737,-2.39355c-1.25449,-1.41131 -2.00513,-3.50402 -2.00513,-5.66895c0,-2.16493 0.75064,-4.25764 2.00513,-5.66895c1.25449,-1.4113 2.92196,-2.39355 6.05737,-2.39355zM134.375,102.125c2.23958,0 3.23517,0.64631 4.04175,1.55371c0.80658,0.9074 1.33325,2.32823 1.33325,3.82129c0,1.49306 -0.5267,2.91389 -1.33325,3.82129c-0.80657,0.9074 -1.80217,1.55371 -4.04175,1.55371c-2.23958,0 -3.23517,-0.64631 -4.04175,-1.55371c-0.80658,-0.9074 -1.33325,-2.32823 -1.33325,-3.82129c0,-1.49306 0.52667,-2.91389 1.33325,-3.82129c0.80657,-0.9074 1.80217,-1.55371 4.04175,-1.55371zM86,129c2.23958,0 3.23517,0.64631 4.04175,1.55371c0.80658,0.9074 1.33325,2.32824 1.33325,3.82129c0,1.49306 -0.5267,2.91388 -1.33325,3.82129c-0.80657,0.9074 -1.80217,1.55371 -4.04175,1.55371c-2.23958,0 -3.23517,-0.64631 -4.04175,-1.55371c-0.80658,-0.9074 -1.33325,-2.32824 -1.33325,-3.82129c0,-1.49306 0.52667,-2.91388 1.33325,-3.82129c0.80657,-0.9074 1.80217,-1.55371 4.04175,-1.55371z" />
	</g>
</svg>